<svg xmlns="http://www.w3.org/2000/svg" width="280" height="56" viewBox="0 0 280 56" fill="none">
  <defs>
    <linearGradient id="wm" x1="0" y1="0" x2="1" y2="0">
      <stop offset="0" stop-color="#111827"></stop>
      <stop offset="1" stop-color="#4b5563"></stop>
    </linearGradient>
    <filter id="glow" x="-20%" y="-20%" width="140%" height="140%">
      <feGaussianBlur in="SourceAlpha" stdDeviation="4"></feGaussianBlur>
      <feOffset dy="4"></feOffset>
      <feComponentTransfer><feFuncA type="linear" slope="0.3"></feFuncA></feComponentTransfer>
      <feMerge><feMergeNode></feMergeNode><feMergeNode in="SourceGraphic"></feMergeNode></feMerge>
    </filter>
  </defs>
  <g filter="url(#glow)">
    <rect x="4" y="6" width="44" height="44" rx="12" fill="#0084ff"></rect>
    <g transform="translate(14, 16)" fill="none" stroke="#ffffff" stroke-width="2" stroke-linecap="round" stroke-linejoin="round">
      <path d="M6 22V4a2 2 0 0 1 2-2h8a2 2 0 0 1 2 2v18"></path>
      <path d="M18 10h2a2 2 0 0 1 2 2v10"></path>
      <path d="M2 14h2a2 2 0 0 1 2 2v6"></path>
      <path d="M0 22h24"></path>
      <path d="M10 6h4M10 10h4M10 14h4M10 18h4"></path>
    </g>
  </g>
  <text x="60" y="30" font-family="Inter, system-ui, sans-serif" font-size="18" font-weight="700" fill="url(#wm)" letter-spacing="-0.4">Metrados Belempampa</text>
  <text x="60" y="44" font-family="Inter, system-ui, sans-serif" font-size="10" font-weight="500" fill="#6b7280" letter-spacing="0.2">Plataforma Costos y Presupuestos</text>
</svg>